<svg height="581pt" viewBox="-30 0 581 581.31903" width="581pt" xmlns="http://www.w3.org/2000/svg"><path d="m250.632812 309.867188h19.367188v38.734374h-19.367188zm0 0"/><path d="m250.632812 387.332031h19.367188v38.734375h-19.367188zm0 0"/><path d="m250.632812 464.800781h19.367188v38.734375h-19.367188zm0 0"/><path d="m250.632812 542.265625h19.367188v38.734375h-19.367188zm0 0"/><path d="m337.800781 344.34375-18.703125 5.011719-10.027344-37.414063 18.707032-5.011718zm0 0"/><path d="m357.84375 419.148438-18.707031 5.011718-10.027344-37.410156 18.707031-5.015625zm0 0"/><path d="m377.902344 494.003906-18.703125 5.011719-10.023438-37.414063 18.703125-5.011718zm0 0"/><path d="m397.945312 568.804688-18.707031 5.011718-10.027343-37.414062 18.707031-5.011719zm0 0"/><path d="m404.265625 338.105469-16.773437 9.679687-19.359376-33.546875 16.769532-9.679687zm0 0"/><path d="m443 405.183594-16.773438 9.679687-19.363281-33.546875 16.773438-9.679687zm0 0"/><path d="m481.757812 472.292969-16.769531 9.683593-19.367187-33.542968 16.769531-9.683594zm0 0"/><path d="m520.496094 539.375-16.769532 9.683594-19.367187-33.542969 16.769531-9.683594zm0 0"/><path d="m211.585938 312.375-10.023438 37.414062-18.707031-5.011718 10.027343-37.414063zm0 0"/><path d="m191.542969 387.207031-10.023438 37.414063-18.707031-5.011719 10.023438-37.414063zm0 0"/><path d="m171.488281 462.035156-10.023437 37.414063-18.707032-5.011719 10.023438-37.414062zm0 0"/><path d="m151.433594 536.855469-10.023438 37.414062-18.707031-5.015625 10.023437-37.410156zm0 0"/><path d="m152.496094 314.71875-19.363282 33.546875-16.773437-9.679687 19.363281-33.550782zm0 0"/><path d="m113.769531 381.808594-19.367187 33.542968-16.769532-9.683593 19.367188-33.542969zm0 0"/><path d="m75.019531 448.894531-19.359375 33.550781-16.773437-9.683593 19.363281-33.546875zm0 0"/><path d="m36.277344 515.980469-19.359375 33.546875-16.773438-9.679688 19.359375-33.546875zm0 0"/><path d="m289.367188 0h-58.101563c-5.347656 0-9.683594 4.335938-9.683594 9.683594v183.984375h-96.832031c-4.167969-.003907-7.871094 2.667969-9.191406 6.621093l-19.363282 58.101563c-1.691406 5.074219 1.050782 10.558594 6.125 12.246094.988282.328125 2.023438.496093 3.0625.496093h309.867188c5.347656 0 9.683594-4.332031 9.6875-9.679687 0-1.042969-.167969-2.074219-.496094-3.0625l-19.367187-58.101563c-1.320313-3.953124-5.019531-6.625-9.191407-6.621093h-96.832031v-183.984375c0-5.347656-4.335937-9.683594-9.683593-9.683594zm-48.417969 19.367188h38.734375v174.300781h-38.734375zm160.871093 232.398437h-283.007812l12.917969-38.734375h257.171875zm0 0"/></svg>